<svg xmlns="http://www.w3.org/2000/svg" xmlns:xlink="http://www.w3.org/1999/xlink" width="1000" zoomAndPan="magnify" viewBox="0 0 750 749.999995" height="1000" preserveAspectRatio="xMidYMid meet" version="1.0"><defs><g/></defs><g fill="#000000" fill-opacity="1"><g transform="translate(116.601559, 459.374998)"><g><path d="M 65.40625 1.59375 C 47.664062 1.59375 33.460938 -1.769531 22.796875 -8.5 C 12.128906 -15.226562 6.796875 -25.53125 6.796875 -39.40625 C 6.796875 -46.738281 8.0625 -52.335938 10.59375 -56.203125 C 13.132812 -60.066406 16.867188 -62 21.796875 -62 C 25.398438 -62 28.332031 -61.066406 30.59375 -59.203125 C 32.863281 -57.335938 34 -54.9375 34 -52 C 34 -49.332031 33.800781 -47 33.40625 -45 C 33.40625 -44.46875 33.300781 -43.535156 33.09375 -42.203125 C 32.894531 -40.867188 32.796875 -39.46875 32.796875 -38 C 32.796875 -32 35.828125 -27.53125 41.890625 -24.59375 C 47.960938 -21.664062 56.46875 -20.203125 67.40625 -20.203125 C 78.738281 -20.203125 87.601562 -22.234375 94 -26.296875 C 100.394531 -30.367188 103.59375 -36.070312 103.59375 -43.40625 C 103.59375 -47.9375 102.125 -51.832031 99.1875 -55.09375 C 96.257812 -58.363281 92.59375 -61.097656 88.1875 -63.296875 C 83.789062 -65.492188 77.59375 -68.195312 69.59375 -71.40625 C 59.332031 -75.40625 50.96875 -79.203125 44.5 -82.796875 C 38.03125 -86.398438 32.492188 -91.300781 27.890625 -97.5 C 23.296875 -103.695312 21 -111.394531 21 -120.59375 C 21 -130.195312 23.566406 -138.734375 28.703125 -146.203125 C 33.835938 -153.671875 41.238281 -159.46875 50.90625 -163.59375 C 60.570312 -167.726562 71.9375 -169.796875 85 -169.796875 C 94.726562 -169.796875 103.660156 -168.363281 111.796875 -165.5 C 119.929688 -162.632812 126.429688 -158.265625 131.296875 -152.390625 C 136.160156 -146.523438 138.59375 -139.328125 138.59375 -130.796875 C 138.59375 -122.398438 137.328125 -116.066406 134.796875 -111.796875 C 132.265625 -107.535156 128.53125 -105.40625 123.59375 -105.40625 C 120.132812 -105.40625 117.238281 -106.46875 114.90625 -108.59375 C 112.570312 -110.726562 111.40625 -113.265625 111.40625 -116.203125 C 111.40625 -118.734375 111.601562 -121.066406 112 -123.203125 C 112.394531 -127.203125 112.59375 -129.734375 112.59375 -130.796875 C 112.59375 -136.398438 109.859375 -140.664062 104.390625 -143.59375 C 98.929688 -146.53125 92.132812 -148 84 -148 C 72.53125 -148 63.757812 -145.898438 57.6875 -141.703125 C 51.625 -137.503906 48.59375 -131.601562 48.59375 -124 C 48.59375 -118.9375 50.160156 -114.601562 53.296875 -111 C 56.429688 -107.394531 60.332031 -104.394531 65 -102 C 69.664062 -99.601562 76.195312 -96.738281 84.59375 -93.40625 C 94.726562 -89.269531 102.863281 -85.535156 109 -82.203125 C 115.132812 -78.867188 120.367188 -74.332031 124.703125 -68.59375 C 129.035156 -62.863281 131.203125 -55.800781 131.203125 -47.40625 C 131.203125 -31.664062 125.234375 -19.5625 113.296875 -11.09375 C 101.367188 -2.632812 85.40625 1.59375 65.40625 1.59375 Z M 65.40625 1.59375 "/></g></g></g><g fill="#000000" fill-opacity="1"><g transform="translate(255.197869, 459.374998)"><g><path d="M 116.40625 -44.59375 C 118.132812 -44.59375 119.5 -43.789062 120.5 -42.1875 C 121.5 -40.59375 122 -38.394531 122 -35.59375 C 122 -30.257812 120.734375 -26.128906 118.203125 -23.203125 C 112.460938 -16.128906 106.289062 -10.328125 99.6875 -5.796875 C 93.09375 -1.265625 85.597656 1 77.203125 1 C 70.128906 1 64.394531 -1.53125 60 -6.59375 C 52.394531 -1.664062 44.460938 0.863281 36.203125 1 C 34.460938 26.726562 30.523438 48.226562 24.390625 65.5 C 18.265625 82.769531 9.269531 91.40625 -2.59375 91.40625 C -9.800781 91.40625 -15.132812 88.800781 -18.59375 83.59375 C -22.0625 78.394531 -23.796875 71.195312 -23.796875 62 C -23.796875 48.9375 -20.796875 33.703125 -14.796875 16.296875 C -8.796875 -1.097656 0.46875 -20.265625 13 -41.203125 C 13 -60.671875 12.863281 -74.203125 12.59375 -81.796875 C 12.46875 -85.660156 14.003906 -88.726562 17.203125 -91 C 20.398438 -93.269531 24.398438 -94.40625 29.203125 -94.40625 C 32.003906 -94.40625 34.035156 -93.835938 35.296875 -92.703125 C 36.566406 -91.566406 37.269531 -89.332031 37.40625 -86 C 37.40625 -82.664062 37.46875 -80.195312 37.59375 -78.59375 C 41.863281 -83.925781 46.066406 -87.757812 50.203125 -90.09375 C 54.335938 -92.425781 58.738281 -93.59375 63.40625 -93.59375 C 70.863281 -93.59375 76.957031 -90.59375 81.6875 -84.59375 C 86.425781 -78.59375 88.796875 -70.726562 88.796875 -61 C 88.796875 -53.9375 87.660156 -47.070312 85.390625 -40.40625 C 83.128906 -33.738281 80 -27.671875 76 -22.203125 C 78.800781 -21.398438 81.132812 -21 83 -21 C 87.394531 -21 91.59375 -22.597656 95.59375 -25.796875 C 99.59375 -28.992188 104.726562 -34.328125 111 -41.796875 C 112.601562 -43.660156 114.40625 -44.59375 116.40625 -44.59375 Z M 37.203125 -18.203125 C 42.003906 -19.265625 46.4375 -21.894531 50.5 -26.09375 C 54.5625 -30.300781 57.789062 -35.503906 60.1875 -41.703125 C 62.59375 -47.898438 63.796875 -54.398438 63.796875 -61.203125 C 63.796875 -65.203125 62.992188 -68.234375 61.390625 -70.296875 C 59.796875 -72.367188 57.664062 -73.40625 55 -73.40625 C 50.195312 -73.40625 44.394531 -68.335938 37.59375 -58.203125 C 37.46875 -52.335938 37.40625 -43.738281 37.40625 -32.40625 C 37.40625 -26.269531 37.335938 -21.535156 37.203125 -18.203125 Z M -1 71.796875 C 2.601562 71.796875 5.601562 63.960938 8 48.296875 C 10.394531 32.628906 11.925781 13.128906 12.59375 -10.203125 C 6.863281 3.128906 2.332031 15.863281 -1 28 C -4.332031 40.132812 -6 50.332031 -6 58.59375 C -6 62.863281 -5.5 66.128906 -4.5 68.390625 C -3.5 70.660156 -2.332031 71.796875 -1 71.796875 Z M -1 71.796875 "/></g></g></g><g fill="#000000" fill-opacity="1"><g transform="translate(351.39531, 459.374998)"><g><path d="M 85.40625 -44.59375 C 87.132812 -44.59375 88.5 -43.789062 89.5 -42.1875 C 90.5 -40.59375 91 -38.394531 91 -35.59375 C 91 -30.257812 89.734375 -26.128906 87.203125 -23.203125 C 81.460938 -16.128906 75.226562 -10.328125 68.5 -5.796875 C 61.769531 -1.265625 54.132812 1 45.59375 1 C 33.863281 1 25.164062 -4.332031 19.5 -15 C 13.832031 -25.664062 11 -39.46875 11 -56.40625 C 11 -72.664062 13.097656 -91.195312 17.296875 -112 C 21.492188 -132.800781 27.691406 -150.664062 35.890625 -165.59375 C 44.097656 -180.53125 53.867188 -188 65.203125 -188 C 71.597656 -188 76.628906 -185.03125 80.296875 -179.09375 C 83.960938 -173.164062 85.796875 -164.664062 85.796875 -153.59375 C 85.796875 -137.726562 81.394531 -119.328125 72.59375 -98.390625 C 63.800781 -77.460938 51.867188 -56.734375 36.796875 -36.203125 C 37.734375 -30.734375 39.265625 -26.832031 41.390625 -24.5 C 43.523438 -22.164062 46.328125 -21 49.796875 -21 C 55.265625 -21 60.066406 -22.566406 64.203125 -25.703125 C 68.335938 -28.835938 73.601562 -34.203125 80 -41.796875 C 81.601562 -43.660156 83.40625 -44.59375 85.40625 -44.59375 Z M 60.796875 -168.203125 C 57.734375 -168.203125 54.265625 -162.664062 50.390625 -151.59375 C 46.523438 -140.53125 43.125 -126.796875 40.1875 -110.390625 C 37.257812 -93.992188 35.664062 -78.265625 35.40625 -63.203125 C 44.863281 -78.796875 52.394531 -94.425781 58 -110.09375 C 63.601562 -125.757812 66.40625 -140.0625 66.40625 -153 C 66.40625 -163.132812 64.535156 -168.203125 60.796875 -168.203125 Z M 60.796875 -168.203125 "/></g></g></g><g fill="#000000" fill-opacity="1"><g transform="translate(416.593579, 459.374998)"><g><path d="M 35.796875 -106.40625 C 30.203125 -106.40625 26.003906 -107.703125 23.203125 -110.296875 C 20.398438 -112.898438 19 -116.535156 19 -121.203125 C 19 -125.867188 20.832031 -129.765625 24.5 -132.890625 C 28.164062 -136.023438 32.734375 -137.59375 38.203125 -137.59375 C 43.128906 -137.59375 47.125 -136.394531 50.1875 -134 C 53.257812 -131.601562 54.796875 -128.203125 54.796875 -123.796875 C 54.796875 -118.460938 53.0625 -114.226562 49.59375 -111.09375 C 46.132812 -107.96875 41.535156 -106.40625 35.796875 -106.40625 Z M 34.203125 1 C 25.535156 1 19.234375 -2.066406 15.296875 -8.203125 C 11.367188 -14.335938 9.40625 -22.46875 9.40625 -32.59375 C 9.40625 -38.59375 10.171875 -46.289062 11.703125 -55.6875 C 13.234375 -65.09375 15.195312 -73.863281 17.59375 -82 C 18.800781 -86.269531 20.40625 -89.203125 22.40625 -90.796875 C 24.40625 -92.398438 27.601562 -93.203125 32 -93.203125 C 38.800781 -93.203125 42.203125 -90.9375 42.203125 -86.40625 C 42.203125 -83.070312 40.9375 -75.335938 38.40625 -63.203125 C 35.195312 -48.535156 33.59375 -38.601562 33.59375 -33.40625 C 33.59375 -29.40625 34.125 -26.335938 35.1875 -24.203125 C 36.257812 -22.066406 38.0625 -21 40.59375 -21 C 43 -21 46 -22.664062 49.59375 -26 C 53.195312 -29.332031 58 -34.597656 64 -41.796875 C 65.601562 -43.660156 67.40625 -44.59375 69.40625 -44.59375 C 71.132812 -44.59375 72.5 -43.789062 73.5 -42.1875 C 74.5 -40.59375 75 -38.394531 75 -35.59375 C 75 -30.257812 73.734375 -26.128906 71.203125 -23.203125 C 58.003906 -7.066406 45.671875 1 34.203125 1 Z M 34.203125 1 "/></g></g></g><g fill="#000000" fill-opacity="1"><g transform="translate(465.792254, 459.374998)"><g><path d="M 98.796875 -44.59375 C 100.535156 -44.59375 101.90625 -43.789062 102.90625 -42.1875 C 103.90625 -40.59375 104.40625 -38.394531 104.40625 -35.59375 C 104.40625 -30.257812 103.132812 -26.128906 100.59375 -23.203125 C 94.863281 -16.128906 88.597656 -10.328125 81.796875 -5.796875 C 74.992188 -1.265625 67.195312 1 58.40625 1 C 31.195312 1 17.59375 -18.132812 17.59375 -56.40625 C 17.59375 -62.269531 17.796875 -68.203125 18.203125 -74.203125 L 10.40625 -74.203125 C 6.40625 -74.203125 3.703125 -74.929688 2.296875 -76.390625 C 0.898438 -77.859375 0.203125 -80.195312 0.203125 -83.40625 C 0.203125 -90.863281 3.203125 -94.59375 9.203125 -94.59375 L 20.59375 -94.59375 C 22.863281 -109.257812 26.332031 -122.660156 31 -134.796875 C 35.664062 -146.929688 41.296875 -156.597656 47.890625 -163.796875 C 54.492188 -170.992188 61.597656 -174.59375 69.203125 -174.59375 C 74.796875 -174.59375 79.191406 -172.125 82.390625 -167.1875 C 85.597656 -162.257812 87.203125 -156.0625 87.203125 -148.59375 C 87.203125 -127.925781 78.535156 -109.925781 61.203125 -94.59375 L 83.59375 -94.59375 C 85.726562 -94.59375 87.257812 -94.125 88.1875 -93.1875 C 89.125 -92.257812 89.59375 -90.53125 89.59375 -88 C 89.59375 -78.800781 82.0625 -74.203125 67 -74.203125 L 42.59375 -74.203125 C 42.332031 -67.535156 42.203125 -62.332031 42.203125 -58.59375 C 42.203125 -44.726562 43.832031 -34.992188 47.09375 -29.390625 C 50.363281 -23.796875 55.53125 -21 62.59375 -21 C 68.332031 -21 73.398438 -22.734375 77.796875 -26.203125 C 82.203125 -29.671875 87.40625 -34.867188 93.40625 -41.796875 C 95 -43.660156 96.796875 -44.59375 98.796875 -44.59375 Z M 63.796875 -155.40625 C 61.796875 -155.40625 59.5625 -152.90625 57.09375 -147.90625 C 54.632812 -142.90625 52.300781 -135.96875 50.09375 -127.09375 C 47.894531 -118.226562 46.0625 -108.394531 44.59375 -97.59375 C 52.46875 -104.394531 58.367188 -112.03125 62.296875 -120.5 C 66.234375 -128.96875 68.203125 -136.664062 68.203125 -143.59375 C 68.203125 -151.46875 66.734375 -155.40625 63.796875 -155.40625 Z M 63.796875 -155.40625 "/></g></g></g><g fill="#000000" fill-opacity="1"><g transform="translate(544.390158, 459.374998)"><g><path d="M 109.40625 -44.59375 C 111.132812 -44.59375 112.5 -43.789062 113.5 -42.1875 C 114.5 -40.59375 115 -38.394531 115 -35.59375 C 115 -30.664062 113.734375 -26.535156 111.203125 -23.203125 C 104.929688 -15.066406 97.160156 -8.664062 87.890625 -4 C 78.628906 0.664062 68.195312 3 56.59375 3 C 47.53125 3 39.664062 1.632812 33 -1.09375 C 26.332031 -3.832031 21.234375 -7.566406 17.703125 -12.296875 C 14.171875 -17.035156 12.40625 -22.335938 12.40625 -28.203125 C 12.40625 -37.003906 15.9375 -44.800781 23 -51.59375 C 30.0625 -58.394531 40.195312 -64.929688 53.40625 -71.203125 L 20.59375 -70.40625 C 17.664062 -70.269531 15.429688 -71.300781 13.890625 -73.5 C 12.359375 -75.695312 11.59375 -78.332031 11.59375 -81.40625 C 11.59375 -84.601562 12.359375 -87.429688 13.890625 -89.890625 C 15.429688 -92.359375 17.535156 -93.59375 20.203125 -93.59375 C 26.335938 -93.59375 34.535156 -93.128906 44.796875 -92.203125 C 46.929688 -92.066406 50.832031 -91.796875 56.5 -91.390625 C 62.164062 -90.992188 66.929688 -90.796875 70.796875 -90.796875 C 72.128906 -90.796875 74.664062 -91.332031 78.40625 -92.40625 C 79.070312 -92.53125 80.367188 -92.859375 82.296875 -93.390625 C 84.234375 -93.929688 85.867188 -94.203125 87.203125 -94.203125 C 89.335938 -94.203125 91.101562 -93.265625 92.5 -91.390625 C 93.894531 -89.523438 94.59375 -86.660156 94.59375 -82.796875 C 94.59375 -78.535156 93.59375 -75.203125 91.59375 -72.796875 C 89.59375 -70.398438 86.460938 -68.269531 82.203125 -66.40625 C 70.066406 -61.195312 60 -55.625 52 -49.6875 C 44 -43.757812 40 -37.863281 40 -32 C 40 -28.269531 41.734375 -25.203125 45.203125 -22.796875 C 48.671875 -20.398438 53.800781 -19.203125 60.59375 -19.203125 C 68.0625 -19.203125 75.628906 -21.066406 83.296875 -24.796875 C 90.960938 -28.535156 97.863281 -34.203125 104 -41.796875 C 105.601562 -43.660156 107.40625 -44.59375 109.40625 -44.59375 Z M 109.40625 -44.59375 "/></g></g></g></svg>